<?xml version="1.0" standalone="no"?>
<!DOCTYPE svg PUBLIC "-//W3C//DTD SVG 20010904//EN"
 "http://www.w3.org/TR/2001/REC-SVG-20010904/DTD/svg10.dtd">
<svg version="1.0" xmlns="http://www.w3.org/2000/svg"
 width="512.000000pt" height="512.000000pt" viewBox="0 0 512.000000 512.000000"
 preserveAspectRatio="xMidYMid meet">
<metadata>
Created by potrace 1.11, written by Peter Selinger 2001-2013
</metadata>
<g transform="translate(0.000000,512.000000) scale(0.100000,-0.100000)"
fill="#000000" stroke="none">
<path d="M2370 5114 c-19 -2 -78 -9 -130 -15 -298 -34 -647 -147 -913 -295
-723 -405 -1194 -1096 -1308 -1924 -18 -125 -18 -515 0 -640 80 -580 329
-1086 732 -1489 323 -323 706 -544 1155 -667 l96 -26 35 34 c19 18 54 60 78
93 55 78 172 313 191 384 18 72 18 213 -2 325 -8 48 -12 101 -9 117 13 56 95
105 357 208 180 72 228 101 271 162 28 42 97 180 97 195 0 5 -20 -19 -43 -51
-84 -115 -142 -170 -219 -208 -145 -70 -920 -326 -1014 -335 -150 -13 -227
143 -178 359 13 57 14 76 4 100 -12 29 -14 29 -90 29 -70 0 -80 2 -103 26 -27
27 -44 82 -33 109 3 9 22 25 42 37 l36 21 -59 27 c-103 47 -147 116 -112 175
10 17 21 49 24 71 l7 40 -74 12 c-40 7 -91 21 -113 31 -114 51 -105 92 80 376
99 151 151 246 176 320 21 61 16 249 -10 384 -28 150 -27 218 5 327 121 421
514 777 964 873 494 105 991 -20 1317 -331 227 -218 349 -473 384 -805 43
-417 -143 -915 -509 -1357 -51 -63 -72 -96 -70 -110 3 -12 63 -214 134 -450
l129 -429 136 -117 c74 -64 161 -136 192 -159 l57 -43 95 77 c508 413 834 998
926 1665 18 125 18 515 0 640 -80 580 -329 1086 -732 1489 -396 396 -892 644
-1454 727 -96 14 -472 27 -545 18z"/>
<path d="M3884 374 c-18 -14 -18 -15 4 -4 12 6 22 13 22 15 0 8 -5 6 -26 -11z"/>
<path d="M3814 334 c-18 -14 -18 -15 4 -4 12 6 22 13 22 15 0 8 -5 6 -26 -11z"/>
<path d="M3680 265 c-25 -13 -41 -24 -37 -25 11 0 87 39 87 45 0 7 0 7 -50
-20z"/>
<path d="M3118 63 c7 -3 16 -2 19 1 4 3 -2 6 -13 5 -11 0 -14 -3 -6 -6z"/>
<path d="M3068 53 c7 -3 16 -2 19 1 4 3 -2 6 -13 5 -11 0 -14 -3 -6 -6z"/>
<path d="M2088 43 c7 -3 16 -2 19 1 4 3 -2 6 -13 5 -11 0 -14 -3 -6 -6z"/>
<path d="M3018 43 c7 -3 16 -2 19 1 4 3 -2 6 -13 5 -11 0 -14 -3 -6 -6z"/>
<path d="M2148 33 c7 -3 16 -2 19 1 4 3 -2 6 -13 5 -11 0 -14 -3 -6 -6z"/>
<path d="M2958 33 c7 -3 16 -2 19 1 4 3 -2 6 -13 5 -11 0 -14 -3 -6 -6z"/>
<path d="M2208 23 c6 -2 18 -2 25 0 6 3 1 5 -13 5 -14 0 -19 -2 -12 -5z"/>
<path d="M2883 23 c9 -2 23 -2 30 0 6 3 -1 5 -18 5 -16 0 -22 -2 -12 -5z"/>
<path d="M2293 13 c9 -2 23 -2 30 0 6 3 -1 5 -18 5 -16 0 -22 -2 -12 -5z"/>
<path d="M2803 13 c9 -2 23 -2 30 0 6 3 -1 5 -18 5 -16 0 -22 -2 -12 -5z"/>
<path d="M2427 3 c18 -2 50 -2 70 0 21 2 7 4 -32 4 -38 0 -55 -2 -38 -4z"/>
<path d="M2613 3 c20 -2 54 -2 75 0 20 2 3 4 -38 4 -41 0 -58 -2 -37 -4z"/>
</g>
</svg>
